<svg width="12" height="10" viewBox="0 0 12 10" fill="none" xmlns="http://www.w3.org/2000/svg">
<path d="M9.16875 3.25035C8.50367 2.16203 7.59638 1.2419 6.5175 0.561602C6.01909 0.245717 5.45093 0.0566427 4.86263 0.0108857C4.27432 -0.0348713 3.68376 0.0640806 3.1425 0.299102C2.66906 0.522416 2.2571 0.857616 1.94219 1.27576C1.62728 1.6939 1.41888 2.18241 1.335 2.6991C1.305 2.87535 1.2825 3.0441 1.26 3.2091C0.908904 3.26601 0.589454 3.44582 0.358662 3.71646C0.127869 3.98709 0.000753104 4.33092 0 4.6866V6.98535C0 7.18426 0.0790176 7.37503 0.21967 7.51568C0.360322 7.65633 0.551088 7.73535 0.75 7.73535V5.4366V4.6866C0.75 4.48769 0.829018 4.29692 0.96967 4.15627C1.11032 4.01562 1.30109 3.9366 1.5 3.9366H8.52375C9.24649 3.93759 9.93935 4.22514 10.4504 4.7362C10.9615 5.24725 11.249 5.94011 11.25 6.66285V6.9366H10.5C10.3416 6.55039 10.0466 6.23602 9.67121 6.05346C9.29582 5.87091 8.86636 5.83296 8.46478 5.94685C8.0632 6.06074 7.71761 6.3185 7.49395 6.67095C7.27029 7.02339 7.18423 7.44585 7.25219 7.8577C7.32014 8.26955 7.53736 8.64196 7.86238 8.90388C8.18741 9.16579 8.59749 9.29887 9.01437 9.27771C9.43126 9.25656 9.82576 9.08265 10.1226 8.78918C10.4194 8.49571 10.5978 8.10322 10.6237 7.6866H11.25C11.4489 7.6866 11.6397 7.60758 11.7803 7.46693C11.921 7.32628 12 7.13551 12 6.9366V6.66285C11.9985 5.85357 11.715 5.07013 11.1982 4.4473C10.6815 3.82448 9.96384 3.40122 9.16875 3.25035ZM3.375 3.1866H1.84875C1.84875 3.07035 1.8825 2.95035 1.905 2.8116C1.96979 2.39965 2.13887 2.01111 2.39616 1.68293C2.65346 1.35475 2.99041 1.09783 3.375 0.936602V3.1866ZM4.125 3.1866V0.779102C4.82511 0.688187 5.53513 0.841848 6.135 1.2141C6.9539 1.72417 7.66069 2.39523 8.2125 3.1866H4.125ZM8.925 8.5791C8.73958 8.5791 8.55832 8.52412 8.40415 8.4211C8.24998 8.31809 8.12982 8.17167 8.05886 8.00037C7.98791 7.82906 7.96934 7.64056 8.00551 7.4587C8.04169 7.27685 8.13098 7.1098 8.26209 6.97869C8.3932 6.84758 8.56025 6.75829 8.7421 6.72212C8.92396 6.68594 9.11246 6.70451 9.28377 6.77546C9.45507 6.84642 9.60149 6.96658 9.7045 7.12075C9.80752 7.27492 9.8625 7.45618 9.8625 7.6416C9.8625 7.89024 9.76373 8.1287 9.58791 8.30451C9.4121 8.48033 9.17364 8.5791 8.925 8.5791Z" fill="#4A5565"/>
<path d="M4.56345 6.93507C4.40507 6.54886 4.11004 6.23449 3.73465 6.05193C3.35927 5.86938 2.92981 5.83142 2.52823 5.94531C2.12664 6.05921 1.78105 6.31697 1.5574 6.66941C1.33374 7.02186 1.24768 7.44431 1.31564 7.85617C1.38359 8.26802 1.60081 8.64043 1.92583 8.90234C2.25086 9.16426 2.66094 9.29733 3.07782 9.27618C3.4947 9.25502 3.88921 9.08112 4.18605 8.78764C4.48289 8.49417 4.66128 8.10168 4.6872 7.68507H6.6747C6.6747 7.65507 6.6747 7.62132 6.6747 7.59132C6.66728 7.37007 6.69255 7.14894 6.7497 6.93507H4.56345ZM2.9997 8.57757C2.81428 8.57757 2.63302 8.52258 2.47885 8.41957C2.32468 8.31656 2.20452 8.17014 2.13356 7.99883C2.0626 7.82753 2.04404 7.63903 2.08021 7.45717C2.11638 7.27531 2.20567 7.10827 2.33678 6.97715C2.4679 6.84604 2.63494 6.75675 2.8168 6.72058C2.99866 6.68441 3.18716 6.70297 3.35846 6.77393C3.52977 6.84489 3.67619 6.96505 3.7792 7.11922C3.88221 7.27339 3.9372 7.45465 3.9372 7.64007C3.9372 7.88871 3.83843 8.12716 3.66261 8.30298C3.48679 8.47879 3.24834 8.57757 2.9997 8.57757Z" fill="#4A5565"/>
</svg>
