<svg width="40" height="40" viewBox="0 0 40 40" fill="none" xmlns="http://www.w3.org/2000/svg">
<path d="M13.3737 20.2322C13.3181 20.0826 13.3181 19.9179 13.3737 19.7682C13.9148 18.4561 14.8334 17.3343 16.0129 16.5448C17.1924 15.7554 18.5797 15.334 19.999 15.334C21.4183 15.334 22.8057 15.7554 23.9852 16.5448C25.1647 17.3343 26.0832 18.4561 26.6244 19.7682C26.6799 19.9179 26.6799 20.0826 26.6244 20.2322C26.0832 21.5443 25.1647 22.6662 23.9852 23.4556C22.8057 24.2451 21.4183 24.6665 19.999 24.6665C18.5797 24.6665 17.1924 24.2451 16.0129 23.4556C14.8334 22.6662 13.9148 21.5443 13.3737 20.2322Z" stroke="#1F2937" stroke-width="1.33333" stroke-linecap="round" stroke-linejoin="round"/>
<path d="M20 22C21.1046 22 22 21.1046 22 20C22 18.8954 21.1046 18 20 18C18.8954 18 18 18.8954 18 20C18 21.1046 18.8954 22 20 22Z" stroke="#1F2937" stroke-width="1.33333" stroke-linecap="round" stroke-linejoin="round"/>
</svg>
