<svg width="10" height="10" viewBox="0 0 10 10" fill="none" xmlns="http://www.w3.org/2000/svg">
<path fill-rule="evenodd" clip-rule="evenodd" d="M3.57909 2.43671e-07H4.09526C4.73135 -9.05865e-06 5.24404 -1.83388e-05 5.64729 0.0541956C6.06594 0.110484 6.4184 0.230898 6.69839 0.510861C6.97835 0.790824 7.09876 1.14332 7.15504 1.56198C7.20923 1.96522 7.20923 2.47793 7.20923 3.11401V6.97674H7.59127C8.15089 6.97674 8.60456 7.43042 8.60456 7.99005V8.02326C8.60456 8.21591 8.76075 8.37209 8.95339 8.37209C9.14604 8.37209 9.30223 8.21591 9.30223 8.02326V6.18167L8.62247 5.95507C8.19512 5.81261 7.90689 5.4127 7.90689 4.96228V3.83721C7.90689 3.25924 8.37545 2.7907 8.95339 2.7907H9.29841C9.27576 2.52567 9.15288 2.27876 8.95428 2.1007C8.93409 2.08263 8.91107 2.06405 8.84391 2.01029L8.27038 1.55147C8.11992 1.43112 8.09554 1.2116 8.21587 1.06115C8.33624 0.910712 8.55577 0.886321 8.70619 1.00667L9.2872 1.4715C9.34413 1.51702 9.38339 1.54843 9.41995 1.5812C9.76371 1.88935 9.97124 2.32121 9.99715 2.78213C9.9999 2.83116 9.9999 2.88143 9.9999 2.9543V5.92209C10 5.92749 10 5.93288 9.9999 5.93828V8.02326C9.9999 8.60121 9.53134 9.06977 8.95339 9.06977C8.37545 9.06977 7.90689 8.60121 7.90689 8.02326V7.99005C7.90689 7.81572 7.76559 7.67442 7.59127 7.67442H7.20923V9.30233H7.3255C7.51815 9.30233 7.67434 9.45851 7.67434 9.65116C7.67434 9.84381 7.51815 10 7.3255 10H0.348834C0.15618 10 0 9.84381 0 9.65116C0 9.45851 0.15618 9.30233 0.348834 9.30233H0.465111V3.11401C0.465102 2.47793 0.465093 1.96522 0.519306 1.56198C0.575594 1.14332 0.696007 0.790824 0.975967 0.510861C1.25593 0.230898 1.60842 0.110484 2.02707 0.0541956C2.43031 -1.83388e-05 2.94301 -9.05865e-06 3.57909 2.43671e-07ZM1.16278 9.30233H6.51156V3.13954C6.51156 2.4719 6.51082 2.00627 6.46361 1.65494C6.4177 1.31365 6.33379 1.13292 6.20505 1.00419C6.07631 0.875465 5.89561 0.791535 5.55431 0.745651C5.20297 0.698414 4.73735 0.697675 4.06972 0.697675H3.60461C2.93698 0.697675 2.47136 0.698414 2.12003 0.745651C1.77874 0.791535 1.59802 0.875465 1.46929 1.00419C1.34057 1.13292 1.25664 1.31365 1.21075 1.65494C1.16352 2.00627 1.16278 2.4719 1.16278 3.13954V9.30233ZM9.30223 5.44623V3.48837H8.95339C8.76075 3.48837 8.60456 3.64455 8.60456 3.83721V4.96228C8.60456 5.11242 8.70065 5.24572 8.84307 5.29321L9.30223 5.44623ZM3.11869 1.86047C3.12561 1.86047 3.13254 1.86047 3.1395 1.86047H4.53484C4.54181 1.86047 4.54874 1.86047 4.55567 1.86047C4.75697 1.86044 4.94153 1.86042 5.09167 1.8806C5.25701 1.90283 5.43176 1.95514 5.57548 2.09887C5.71924 2.2426 5.77152 2.41735 5.79375 2.58269C5.81394 2.73284 5.81394 2.91741 5.81389 3.11873V3.16034C5.81394 3.36166 5.81394 3.54623 5.79375 3.69638C5.77152 3.86172 5.71924 4.03647 5.57548 4.18019C5.43176 4.32395 5.25701 4.37623 5.09167 4.39847C4.94153 4.41865 4.75697 4.41865 4.55563 4.41861C4.54874 4.41861 4.54181 4.41861 4.53484 4.41861H3.1395C3.13254 4.41861 3.12561 4.41861 3.11869 4.41861C2.91738 4.41865 2.73281 4.41865 2.58267 4.39847C2.41733 4.37623 2.24258 4.32395 2.09884 4.18019C1.95511 4.03647 1.90281 3.86172 1.88058 3.69638C1.8604 3.54623 1.86042 3.36166 1.86045 3.16035C1.86045 3.15343 1.86045 3.14649 1.86045 3.13954C1.86045 3.13258 1.86045 3.12564 1.86045 3.11872C1.86042 2.91741 1.8604 2.73284 1.88058 2.58269C1.90281 2.41735 1.95511 2.2426 2.09884 2.09887C2.24258 1.95514 2.41733 1.90283 2.58267 1.8806C2.73281 1.86042 2.91738 1.86044 3.11869 1.86047ZM2.5922 2.59217C2.59235 2.59205 2.59238 2.59199 2.5922 2.59217V2.59217ZM2.59331 2.59156L2.5922 2.59217L2.59154 2.59334C2.59107 2.59424 2.59031 2.59578 2.58935 2.59813C2.58518 2.60826 2.57807 2.63075 2.57203 2.67566C2.55885 2.77367 2.55811 2.91041 2.55811 3.13954C2.55811 3.36866 2.55885 3.5054 2.57203 3.60341C2.57807 3.64832 2.58518 3.67082 2.58935 3.68095C2.59031 3.68329 2.59107 3.68484 2.59154 3.68573L2.59218 3.68687L2.59331 3.68751C2.59421 3.68798 2.59575 3.68873 2.59809 3.68969C2.60822 3.69386 2.63072 3.70098 2.67563 3.70701C2.77364 3.72019 2.91038 3.72093 3.1395 3.72093H4.53484C4.76395 3.72093 4.90069 3.72019 4.99869 3.70701C5.04362 3.70098 5.06613 3.69386 5.07623 3.68969C5.0786 3.68873 5.08013 3.68798 5.08102 3.68751L5.08218 3.68687L5.08278 3.68573C5.08325 3.68484 5.08404 3.68329 5.08497 3.68095C5.08916 3.67082 5.09627 3.64832 5.10232 3.60341C5.11548 3.5054 5.11623 3.36866 5.11623 3.13954C5.11623 2.91041 5.11548 2.77367 5.10232 2.67566C5.09627 2.63075 5.08916 2.60826 5.08497 2.59813C5.08404 2.59578 5.08325 2.59424 5.08278 2.59334L5.08218 2.5922L5.08102 2.59156C5.08013 2.59109 5.0786 2.59034 5.07623 2.58938C5.06613 2.58521 5.04362 2.5781 4.99869 2.57206C4.90069 2.55888 4.76395 2.55814 4.53484 2.55814H3.1395C2.91038 2.55814 2.77364 2.55888 2.67563 2.57206C2.63072 2.5781 2.60822 2.58521 2.59809 2.58938C2.59575 2.59034 2.59421 2.59109 2.59331 2.59156ZM2.59218 3.68687C2.59199 3.68668 2.59205 3.68671 2.59218 3.68687V3.68687ZM5.08218 3.68687C5.08213 3.68687 5.08218 3.68687 5.08218 3.68687V3.68687ZM5.08218 3.68687C5.08213 3.68687 5.08218 3.68687 5.08218 3.68687V3.68687ZM2.32556 7.32558C2.32556 7.13293 2.48174 6.97674 2.67439 6.97674H4.99995C5.1926 6.97674 5.34878 7.13293 5.34878 7.32558C5.34878 7.51823 5.1926 7.67442 4.99995 7.67442H2.67439C2.48174 7.67442 2.32556 7.51823 2.32556 7.32558Z" fill="#4A5565"/>
</svg>
