<svg width="16" height="16" viewBox="0 0 16 16" fill="none" xmlns="http://www.w3.org/2000/svg">
<path d="M10.0007 1.33398H6.00065C5.63246 1.33398 5.33398 1.63246 5.33398 2.00065V3.33398C5.33398 3.70217 5.63246 4.00065 6.00065 4.00065H10.0007C10.3688 4.00065 10.6673 3.70217 10.6673 3.33398V2.00065C10.6673 1.63246 10.3688 1.33398 10.0007 1.33398Z" stroke="#6B6B6B" stroke-width="1.6" stroke-linecap="round" stroke-linejoin="round"/>
<path d="M10.666 2.66602H11.9993C12.353 2.66602 12.6921 2.80649 12.9422 3.05654C13.1922 3.30659 13.3327 3.64573 13.3327 3.99935V13.3327C13.3327 13.6863 13.1922 14.0254 12.9422 14.2755C12.6921 14.5255 12.353 14.666 11.9993 14.666H3.99935C3.64573 14.666 3.30659 14.5255 3.05654 14.2755C2.80649 14.0254 2.66602 13.6863 2.66602 13.3327V3.99935C2.66602 3.64573 2.80649 3.30659 3.05654 3.05654C3.30659 2.80649 3.64573 2.66602 3.99935 2.66602H5.33268" stroke="#6B6B6B" stroke-width="1.6" stroke-linecap="round" stroke-linejoin="round"/>
<path d="M8 7.33398H10.6667" stroke="#6B6B6B" stroke-width="1.6" stroke-linecap="round" stroke-linejoin="round"/>
<path d="M8 10.666H10.6667" stroke="#6B6B6B" stroke-width="1.6" stroke-linecap="round" stroke-linejoin="round"/>
<path d="M5.33398 7.33398H5.34198" stroke="#6B6B6B" stroke-width="1.6" stroke-linecap="round" stroke-linejoin="round"/>
<path d="M5.33398 10.666H5.34198" stroke="#6B6B6B" stroke-width="1.6" stroke-linecap="round" stroke-linejoin="round"/>
</svg>
