<svg width="15" height="16" viewBox="0 0 15 16" fill="none" xmlns="http://www.w3.org/2000/svg">
<path d="M11.8276 6.66732C11.8276 9.99598 8.55185 13.4627 7.45185 14.5333C7.34937 14.6202 7.22463 14.6672 7.09642 14.6672C6.9682 14.6672 6.84346 14.6202 6.74099 14.5333C5.64099 13.4627 2.36523 9.99598 2.36523 6.66732C2.36523 5.25283 2.8637 3.89628 3.75097 2.89608C4.63823 1.89589 5.84163 1.33398 7.09642 1.33398C8.35121 1.33398 9.5546 1.89589 10.4419 2.89608C11.3291 3.89628 11.8276 5.25283 11.8276 6.66732Z" stroke="#2563EB" stroke-width="1.5" stroke-linecap="round" stroke-linejoin="round"/>
<path d="M7.09646 8.66602C8.07632 8.66602 8.87065 7.77059 8.87065 6.66602C8.87065 5.56145 8.07632 4.66602 7.09646 4.66602C6.1166 4.66602 5.32227 5.56145 5.32227 6.66602C5.32227 7.77059 6.1166 8.66602 7.09646 8.66602Z" stroke="#2563EB" stroke-width="1.5" stroke-linecap="round" stroke-linejoin="round"/>
</svg>
