<svg width="148" height="30" viewBox="0 0 148 30" fill="none" xmlns="http://www.w3.org/2000/svg">
<path d="M44.672 24.264C43.408 24.264 42.232 24.048 41.144 23.616C40.072 23.168 39.128 22.544 38.312 21.744C37.512 20.944 36.888 20.016 36.44 18.96C35.992 17.888 35.768 16.736 35.768 15.504C35.768 14.272 35.992 13.128 36.44 12.072C36.888 11 37.512 10.072 38.312 9.288C39.112 8.504 40.048 7.896 41.12 7.464C42.208 7.016 43.384 6.792 44.648 6.792C45.992 6.792 47.184 7.008 48.224 7.44C49.28 7.872 50.2 8.464 50.984 9.216L48.464 11.76C48.016 11.28 47.472 10.904 46.832 10.632C46.208 10.36 45.48 10.224 44.648 10.224C43.912 10.224 43.232 10.352 42.608 10.608C42 10.848 41.472 11.2 41.024 11.664C40.592 12.128 40.248 12.688 39.992 13.344C39.752 14 39.632 14.72 39.632 15.504C39.632 16.304 39.752 17.032 39.992 17.688C40.248 18.344 40.592 18.904 41.024 19.368C41.472 19.832 42 20.192 42.608 20.448C43.232 20.704 43.912 20.832 44.648 20.832C45.512 20.832 46.264 20.696 46.904 20.424C47.544 20.152 48.096 19.776 48.56 19.296L51.104 21.84C50.288 22.592 49.352 23.184 48.296 23.616C47.256 24.048 46.048 24.264 44.672 24.264ZM57.4336 24.24C56.3616 24.24 55.4016 23.976 54.5536 23.448C53.7216 22.92 53.0576 22.2 52.5616 21.288C52.0816 20.376 51.8416 19.336 51.8416 18.168C51.8416 17 52.0816 15.96 52.5616 15.048C53.0576 14.136 53.7216 13.416 54.5536 12.888C55.4016 12.36 56.3616 12.096 57.4336 12.096C58.2176 12.096 58.9216 12.248 59.5456 12.552C60.1856 12.856 60.7056 13.28 61.1056 13.824C61.5056 14.352 61.7296 14.96 61.7776 15.648V20.688C61.7296 21.376 61.5056 21.992 61.1056 22.536C60.7216 23.064 60.2096 23.48 59.5696 23.784C58.9296 24.088 58.2176 24.24 57.4336 24.24ZM58.1776 20.928C58.9616 20.928 59.5936 20.672 60.0736 20.16C60.5536 19.632 60.7936 18.968 60.7936 18.168C60.7936 17.624 60.6816 17.144 60.4576 16.728C60.2496 16.312 59.9456 15.992 59.5456 15.768C59.1616 15.528 58.7136 15.408 58.2016 15.408C57.6896 15.408 57.2336 15.528 56.8336 15.768C56.4496 15.992 56.1376 16.312 55.8976 16.728C55.6736 17.144 55.5616 17.624 55.5616 18.168C55.5616 18.696 55.6736 19.168 55.8976 19.584C56.1216 20 56.4336 20.328 56.8336 20.568C57.2336 20.808 57.6816 20.928 58.1776 20.928ZM60.6496 24V20.856L61.2016 18.024L60.6496 15.192V12.336H64.2496V24H60.6496ZM66.8351 24V12.336H70.5071V24H66.8351ZM70.5071 17.592L68.9711 16.392C69.2751 15.032 69.7871 13.976 70.5071 13.224C71.2271 12.472 72.2271 12.096 73.5071 12.096C74.0671 12.096 74.5551 12.184 74.9711 12.36C75.4031 12.52 75.7791 12.776 76.0991 13.128L73.9151 15.888C73.7551 15.712 73.5551 15.576 73.3151 15.48C73.0751 15.384 72.8031 15.336 72.4991 15.336C71.8911 15.336 71.4031 15.528 71.0351 15.912C70.6831 16.28 70.5071 16.84 70.5071 17.592ZM80.7151 17.016V14.232H84.2911C85.0431 14.232 85.6191 14.04 86.0191 13.656C86.4351 13.272 86.6431 12.752 86.6431 12.096C86.6431 11.488 86.4431 10.984 86.0431 10.584C85.6431 10.184 85.0671 9.984 84.3151 9.984H80.7151V7.056H84.7471C85.8671 7.056 86.8511 7.272 87.6991 7.704C88.5471 8.12 89.2111 8.704 89.6911 9.456C90.1711 10.208 90.4111 11.072 90.4111 12.048C90.4111 13.04 90.1711 13.912 89.6911 14.664C89.2111 15.4 88.5391 15.976 87.6751 16.392C86.8111 16.808 85.7951 17.016 84.6271 17.016H80.7151ZM77.8351 24V7.056H81.6031V24H77.8351ZM87.0511 24L81.7711 16.704L85.2271 15.768L91.5151 24H87.0511ZM98.2826 24.264C97.0186 24.264 95.8906 24.008 94.8986 23.496C93.9226 22.968 93.1546 22.24 92.5946 21.312C92.0346 20.384 91.7546 19.336 91.7546 18.168C91.7546 17 92.0266 15.96 92.5706 15.048C93.1306 14.12 93.8826 13.392 94.8266 12.864C95.7706 12.336 96.8346 12.072 98.0186 12.072C99.1706 12.072 100.187 12.32 101.067 12.816C101.947 13.312 102.635 14 103.131 14.88C103.643 15.76 103.899 16.768 103.899 17.904C103.899 18.112 103.883 18.336 103.851 18.576C103.835 18.8 103.795 19.064 103.731 19.368L93.6746 19.392V16.872L102.171 16.848L100.587 17.904C100.571 17.232 100.467 16.68 100.275 16.248C100.083 15.8 99.7946 15.464 99.4106 15.24C99.0426 15 98.5866 14.88 98.0426 14.88C97.4666 14.88 96.9626 15.016 96.5306 15.288C96.1146 15.544 95.7866 15.912 95.5466 16.392C95.3226 16.872 95.2106 17.456 95.2106 18.144C95.2106 18.832 95.3306 19.424 95.5706 19.92C95.8266 20.4 96.1786 20.776 96.6266 21.048C97.0906 21.304 97.6346 21.432 98.2586 21.432C98.8346 21.432 99.3546 21.336 99.8186 21.144C100.283 20.936 100.691 20.632 101.043 20.232L103.059 22.248C102.483 22.92 101.787 23.424 100.971 23.76C100.155 24.096 99.2586 24.264 98.2826 24.264ZM113.375 24V17.352C113.375 16.744 113.183 16.256 112.799 15.888C112.431 15.504 111.959 15.312 111.383 15.312C110.983 15.312 110.631 15.4 110.327 15.576C110.023 15.736 109.783 15.976 109.607 16.296C109.431 16.6 109.343 16.952 109.343 17.352L107.927 16.656C107.927 15.744 108.127 14.944 108.527 14.256C108.927 13.568 109.479 13.04 110.183 12.672C110.903 12.288 111.711 12.096 112.607 12.096C113.471 12.096 114.231 12.304 114.887 12.72C115.559 13.12 116.087 13.656 116.471 14.328C116.855 15 117.047 15.736 117.047 16.536V24H113.375ZM105.671 24V12.336H109.343V24H105.671ZM120.921 24V7.512H124.593V24H120.921ZM118.281 15.456V12.336H127.233V15.456H118.281ZM133.488 24.24C132.416 24.24 131.456 23.976 130.608 23.448C129.776 22.92 129.112 22.2 128.616 21.288C128.136 20.376 127.896 19.336 127.896 18.168C127.896 17 128.136 15.96 128.616 15.048C129.112 14.136 129.776 13.416 130.608 12.888C131.456 12.36 132.416 12.096 133.488 12.096C134.272 12.096 134.976 12.248 135.6 12.552C136.24 12.856 136.76 13.28 137.16 13.824C137.56 14.352 137.784 14.96 137.832 15.648V20.688C137.784 21.376 137.56 21.992 137.16 22.536C136.776 23.064 136.264 23.48 135.624 23.784C134.984 24.088 134.272 24.24 133.488 24.24ZM134.232 20.928C135.016 20.928 135.648 20.672 136.128 20.16C136.608 19.632 136.848 18.968 136.848 18.168C136.848 17.624 136.736 17.144 136.512 16.728C136.304 16.312 136 15.992 135.6 15.768C135.216 15.528 134.768 15.408 134.256 15.408C133.744 15.408 133.288 15.528 132.888 15.768C132.504 15.992 132.192 16.312 131.952 16.728C131.728 17.144 131.616 17.624 131.616 18.168C131.616 18.696 131.728 19.168 131.952 19.584C132.176 20 132.488 20.328 132.888 20.568C133.288 20.808 133.736 20.928 134.232 20.928ZM136.704 24V20.856L137.256 18.024L136.704 15.192V12.336H140.304V24H136.704ZM142.89 24V6.576H146.562V24H142.89Z" fill="#414141"/>
<path d="M3.50614 11.7502C3.53267 11.7502 3.55921 11.7502 3.58655 11.7502C3.63231 11.7501 3.63231 11.7501 3.67898 11.75C3.72986 11.7501 3.72986 11.7501 3.78176 11.7503C3.81747 11.7503 3.85319 11.7502 3.88998 11.7502C3.98956 11.7502 4.08913 11.7503 4.18871 11.7504C4.29592 11.7506 4.40313 11.7505 4.51034 11.7505C4.69624 11.7505 4.88214 11.7506 5.06804 11.7508C5.33682 11.751 5.6056 11.7511 5.87439 11.7512C6.31042 11.7512 6.74646 11.7515 7.18249 11.7518C7.60617 11.7521 8.02985 11.7523 8.45352 11.7524C8.47962 11.7525 8.50572 11.7525 8.5326 11.7525C8.66352 11.7525 8.79443 11.7526 8.92534 11.7526C10.0121 11.7529 11.0989 11.7535 12.1857 11.7543C12.1857 11.9119 12.1333 12.0025 12.0639 12.1353C11.7206 12.8167 11.4692 13.5626 11.3331 14.3249C11.3276 14.3543 11.322 14.3837 11.3163 14.414C11.1344 15.4075 11.1463 16.4647 11.3331 17.4559C11.3378 17.4823 11.3425 17.5087 11.3474 17.536C11.5689 18.7599 12.1029 19.9181 12.8252 20.8835C12.8379 20.9006 12.8506 20.9178 12.8637 20.9354C13.1847 21.3668 13.5438 21.7676 13.9519 22.1029C13.977 22.1238 13.977 22.1238 14.0027 22.1451C14.4365 22.5033 14.8888 22.8083 15.3831 23.0587C15.4048 23.0698 15.4266 23.081 15.449 23.0924C16.4133 23.5829 17.4478 23.8239 18.5119 23.825C18.5354 23.825 18.5588 23.825 18.583 23.8251C18.9841 23.8247 19.3728 23.7956 19.768 23.7178C19.7924 23.7133 19.8168 23.7087 19.842 23.7039C20.8172 23.5171 21.7836 23.1097 22.5999 22.4984C22.6493 22.4621 22.6493 22.4621 22.6996 22.425C22.9658 22.2262 23.2112 22.0061 23.4526 21.7733C23.4693 21.7573 23.4861 21.7413 23.5033 21.7247C23.6923 21.5432 23.8692 21.3576 24.0311 21.1472C24.055 21.1184 24.0789 21.0896 24.1035 21.06C24.4 20.6994 24.6558 20.2949 24.8717 19.8726C24.8854 19.8459 24.8991 19.8192 24.9132 19.7917C24.9236 19.7713 24.9339 19.751 24.9447 19.73C24.9213 19.73 24.898 19.73 24.8739 19.7301C24.3064 19.7308 23.739 19.7313 23.1715 19.7317C22.8971 19.7319 22.6227 19.7321 22.3483 19.7325C22.1092 19.7328 21.8701 19.733 21.631 19.7331C21.5043 19.7331 21.3776 19.7332 21.251 19.7335C21.1319 19.7337 21.0128 19.7338 20.8937 19.7337C20.8498 19.7337 20.806 19.7338 20.7622 19.7339C20.7026 19.7341 20.643 19.734 20.5834 19.7339C20.55 19.734 20.5165 19.734 20.4821 19.734C20.4075 19.73 20.4075 19.73 20.377 19.697C20.374 19.6471 20.3732 19.597 20.3732 19.5469C20.3731 19.5144 20.373 19.482 20.3729 19.4486C20.373 19.4127 20.373 19.3768 20.3731 19.3398C20.373 19.3023 20.373 19.2647 20.3729 19.226C20.3728 19.1012 20.3729 18.9763 20.373 18.8515C20.373 18.7651 20.3729 18.6788 20.3729 18.5925C20.3728 18.4113 20.3729 18.2301 20.3731 18.0489C20.3732 17.8391 20.3732 17.6293 20.373 17.4196C20.3728 17.2181 20.3729 17.0167 20.373 16.8153C20.373 16.7294 20.3729 16.6435 20.3729 16.5576C20.3728 16.4378 20.3729 16.318 20.3731 16.1982C20.373 16.1623 20.373 16.1264 20.3729 16.0894C20.373 16.057 20.3731 16.0245 20.3732 15.9911C20.3732 15.9628 20.3732 15.9344 20.3732 15.9052C20.377 15.841 20.377 15.841 20.4075 15.808C20.4557 15.8048 20.5041 15.8039 20.5524 15.8039C20.5839 15.8038 20.6155 15.8037 20.648 15.8036C20.6831 15.8037 20.7181 15.8038 20.7543 15.8038C20.7912 15.8038 20.8281 15.8037 20.8662 15.8037C20.9692 15.8036 21.0722 15.8036 21.1752 15.8037C21.2861 15.8038 21.3969 15.8037 21.5078 15.8036C21.7252 15.8034 21.9426 15.8035 22.1601 15.8036C22.3367 15.8036 22.5133 15.8037 22.6899 15.8036C22.715 15.8036 22.7401 15.8036 22.7659 15.8036C22.8169 15.8036 22.8678 15.8036 22.9188 15.8036C23.3972 15.8035 23.8756 15.8036 24.354 15.8038C24.7649 15.8039 25.1758 15.8039 25.5868 15.8037C26.0634 15.8036 26.54 15.8035 27.0167 15.8036C27.0674 15.8036 27.1182 15.8036 27.169 15.8036C27.2065 15.8036 27.2065 15.8036 27.2447 15.8036C27.4212 15.8037 27.5977 15.8036 27.7742 15.8035C27.9892 15.8034 28.2041 15.8035 28.4191 15.8036C28.5288 15.8037 28.6386 15.8038 28.7484 15.8037C28.8671 15.8035 28.9859 15.8037 29.1046 15.8038C29.1397 15.8038 29.1748 15.8037 29.2109 15.8036C29.2424 15.8037 29.274 15.8038 29.3065 15.8039C29.3339 15.8039 29.3614 15.8039 29.3897 15.8039C29.4514 15.808 29.4514 15.808 29.4818 15.841C29.4908 15.989 29.4893 16.1376 29.4895 16.2859C29.4895 16.3194 29.4895 16.3194 29.4895 16.3535C29.4889 16.7924 29.4544 17.2202 29.3905 17.6537C29.3827 17.7072 29.3827 17.7072 29.3747 17.7619C29.1161 19.4815 28.5281 21.1712 27.5939 22.5973C27.5734 22.6287 27.5529 22.6602 27.5318 22.6926C27.4722 22.7825 27.4116 22.8713 27.3503 22.9598C27.3272 22.9933 27.3041 23.0267 27.2803 23.0611C26.7455 23.8288 26.1307 24.54 25.4319 25.135C25.3915 25.1702 25.3511 25.2054 25.3108 25.2406C23.7906 26.5556 21.9358 27.38 20.0135 27.6686C19.9908 27.672 19.9681 27.6755 19.9447 27.679C19.4817 27.7475 19.0213 27.7786 18.5538 27.7778C18.5321 27.7778 18.5104 27.7778 18.488 27.7777C18.0801 27.7767 17.6765 27.7561 17.271 27.7057C17.2393 27.7018 17.2076 27.6979 17.1749 27.6939C16.2027 27.5687 15.2492 27.2945 14.3477 26.8818C14.3283 26.8729 14.3089 26.8641 14.289 26.855C13.9773 26.7127 13.6731 26.5569 13.3733 26.3874C13.3525 26.3757 13.3318 26.3641 13.3104 26.3521C13.0108 26.1826 12.7262 25.9924 12.4446 25.79C12.4144 25.7684 12.3842 25.7468 12.3531 25.7245C12.1816 25.5995 12.0176 25.4682 11.8575 25.3265C11.7903 25.2673 11.7219 25.2102 11.6528 25.1536C11.5271 25.0482 11.4093 24.9351 11.2921 24.8188C11.2282 24.7562 11.1636 24.6951 11.0983 24.6343C10.9514 24.4956 10.814 24.3473 10.6765 24.1978C10.6518 24.1712 10.6271 24.1446 10.6016 24.1171C10.4534 23.9565 10.3114 23.7923 10.176 23.619C10.1602 23.5989 10.1445 23.5788 10.1283 23.558C9.74095 23.0584 9.40355 22.5281 9.08788 21.973C9.05579 21.9166 9.02332 21.8605 8.99076 21.8044C8.66037 21.2178 8.41862 20.5693 8.19666 19.9277C8.18036 19.8808 8.18036 19.8808 8.16373 19.833C7.75741 18.6447 7.54656 17.3414 7.55529 16.0758C7.55542 16.037 7.55556 15.9982 7.5557 15.9583C7.55606 15.8642 7.55655 15.7702 7.55719 15.6762C7.51908 15.6772 7.51908 15.6772 7.4802 15.6783C6.30734 15.7059 5.34424 15.4504 4.46238 14.5676C3.8385 13.8935 3.4198 12.9354 3.41016 11.9767C3.41137 11.7566 3.41137 11.7566 3.50614 11.7502Z" fill="#2563EB"/>
<path d="M0.159878 4.00433C0.18685 4.00424 0.213821 4.00415 0.24161 4.00406C0.286658 4.00416 0.286658 4.00416 0.332616 4.00426C0.364341 4.0042 0.396066 4.00415 0.428752 4.00409C0.536498 4.00393 0.644242 4.00401 0.751987 4.00409C0.829449 4.00403 0.906911 4.00396 0.984373 4.00387C1.15355 4.00371 1.32272 4.00365 1.4919 4.00369C1.7435 4.00374 1.99511 4.0036 2.24671 4.00343C2.72236 4.00311 3.19802 4.00301 3.67367 4.003C4.04131 4.00298 4.40895 4.00291 4.77658 4.00281C4.88233 4.00278 4.98809 4.00275 5.09384 4.00272C5.12013 4.00271 5.14642 4.0027 5.17351 4.0027C5.91364 4.00249 6.65378 4.00236 7.39392 4.00238C7.42185 4.00238 7.44978 4.00238 7.47856 4.00238C7.62015 4.00238 7.76173 4.00239 7.90331 4.00239C7.93143 4.00239 7.95955 4.00239 7.98852 4.00239C8.04538 4.00239 8.10225 4.00239 8.15911 4.0024C9.04224 4.00242 9.92536 4.00217 10.8085 4.00172C11.8007 4.00121 12.7929 4.00093 13.7851 4.00096C13.8911 4.00096 13.9971 4.00096 14.1031 4.00096C14.1292 4.00096 14.1553 4.00096 14.1822 4.00097C14.601 4.00097 15.0198 4.00076 15.4386 4.00047C15.8604 4.00019 16.2822 4.00016 16.704 4.00038C16.9541 4.0005 17.2042 4.00044 17.4542 4.00011C17.6418 3.99989 17.8294 4.00002 18.017 4.00028C18.0922 4.00033 18.1675 4.00027 18.2428 4.00008C18.9108 3.99855 19.5754 4.03476 20.2361 4.14651C20.2568 4.14996 20.2775 4.15342 20.2988 4.15697C21.3911 4.3411 22.4576 4.71658 23.4392 5.2681C23.5317 5.31997 23.625 5.36884 23.719 5.41744C24.5085 5.84646 25.2091 6.43046 25.8695 7.05967C25.9133 7.10109 25.9576 7.14189 26.0019 7.1826C26.0242 7.20303 26.0464 7.22347 26.0694 7.24452C26.0971 7.26969 26.0971 7.26969 26.1254 7.29537C26.1626 7.33721 26.1626 7.33721 26.1626 7.40313C26.19 7.41638 26.19 7.41638 26.2178 7.42991C26.2844 7.46902 26.3275 7.50516 26.3758 7.56792C26.3758 7.58967 26.3758 7.61142 26.3758 7.63383C26.394 7.64254 26.4123 7.65125 26.4311 7.66022C26.501 7.70176 26.5363 7.73887 26.587 7.8048C26.6583 7.8962 26.7298 7.98718 26.8029 8.07683C27.4357 8.85435 27.9715 9.73058 28.3863 10.6649C28.4168 10.7337 28.4478 10.8023 28.4788 10.8709C28.5835 11.1046 28.6814 11.3403 28.7681 11.5826C28.7801 11.6154 28.7801 11.6154 28.7924 11.6489C28.8327 11.7654 28.8458 11.8332 28.8119 11.9513C28.3111 11.9675 27.8103 11.9797 27.3094 11.9871C27.0767 11.9907 26.8442 11.9955 26.6116 12.0035C26.4087 12.0104 26.2059 12.0149 26.0029 12.0164C25.8955 12.0173 25.7884 12.0194 25.6811 12.0244C25.0314 12.054 25.0314 12.054 24.8376 11.8841C24.7045 11.7206 24.6136 11.5393 24.5277 11.3434C24.4688 11.219 24.3927 11.1133 24.3108 11.0058C24.2974 10.9877 24.2839 10.9696 24.2701 10.9509C24.1003 10.7239 23.92 10.507 23.7266 10.3034C23.5743 10.1386 23.5743 10.1386 23.5291 10.0874C22.3916 8.81521 20.5656 8.00894 18.9407 7.96148C18.7496 7.95826 18.5585 7.95874 18.3674 7.95886C18.3024 7.95878 18.2374 7.95868 18.1724 7.95858C17.9943 7.95832 17.8163 7.95827 17.6383 7.95824C17.4461 7.95818 17.2538 7.95793 17.0616 7.9577C16.7502 7.95735 16.4388 7.95708 16.1275 7.95688C15.6016 7.95655 15.0758 7.95592 14.55 7.95518C14.3474 7.9549 14.1448 7.95463 13.9422 7.95436C13.9197 7.95432 13.8972 7.95429 13.8741 7.95426C13.3388 7.95354 12.8036 7.95289 12.2683 7.95227C12.2449 7.95224 12.2215 7.95222 12.1974 7.95219C11.6514 7.95156 11.1054 7.951 10.5594 7.9506C10.5242 7.95057 10.5242 7.95057 10.4882 7.95054C10.299 7.9504 10.1097 7.95026 9.92045 7.95013C9.13932 7.94956 8.35818 7.94866 7.57705 7.94739C7.46663 7.94721 7.35622 7.94703 7.2458 7.94686C7.22407 7.94682 7.20234 7.94679 7.17995 7.94675C6.83102 7.94622 6.48208 7.94603 6.13315 7.94599C5.78217 7.94594 5.43121 7.94553 5.08024 7.94478C4.89028 7.94438 4.70033 7.94415 4.51038 7.94434C4.33623 7.94452 4.16209 7.94423 3.98795 7.9436C3.9252 7.94345 3.86246 7.94346 3.79972 7.94366C2.74909 7.94672 1.83296 7.60548 1.07109 6.80989C1.03817 6.77739 1.03817 6.77739 1.00459 6.74424C0.677571 6.41237 0.462178 5.99482 0.279363 5.55751C0.264643 5.52348 0.249923 5.48945 0.234757 5.45438C0.145724 5.22974 0.098238 5.00163 0.0566906 4.76241C0.0514601 4.73253 0.0462297 4.70266 0.0408407 4.67188C0.00727129 4.46227 -0.00924033 4.25421 0.0053047 4.04146C0.0521033 3.99081 0.0946333 4.00436 0.159878 4.00433Z" fill="#2563EB"/>
</svg>
