<svg width="14" height="15" viewBox="0 0 14 15" fill="none" xmlns="http://www.w3.org/2000/svg">
<g clip-path="url(#clip0_4328_766)">
<path d="M6.93938 1.36674C6.96224 1.31468 6.99755 1.27086 7.04132 1.24023C7.0851 1.20959 7.1356 1.19336 7.18712 1.19336C7.23864 1.19336 7.28914 1.20959 7.33292 1.24023C7.37669 1.27086 7.412 1.31468 7.43485 1.36674L8.63963 4.11764C8.71889 4.2988 8.83602 4.45552 8.98093 4.57433C9.12584 4.69313 9.2942 4.77045 9.4715 4.79964L12.1658 5.24411C12.2169 5.25245 12.2648 5.27672 12.3043 5.31419C12.3437 5.35166 12.3731 5.40082 12.389 5.45612C12.405 5.51142 12.4069 5.57065 12.3946 5.62711C12.3822 5.68357 12.3561 5.735 12.3192 5.7756L10.3706 7.91447C10.242 8.05555 10.1458 8.22979 10.0903 8.42215C10.0348 8.61452 10.0216 8.81922 10.052 9.0186L10.512 12.0405C10.521 12.0981 10.5155 12.1573 10.4961 12.2114C10.4767 12.2656 10.4441 12.3125 10.4022 12.3468C10.3603 12.3812 10.3107 12.4015 10.259 12.4056C10.2073 12.4096 10.1556 12.3972 10.1099 12.3698L7.70137 10.9423C7.54269 10.8483 7.36612 10.7991 7.18686 10.7991C7.0076 10.7991 6.83102 10.8483 6.67235 10.9423L4.26437 12.3698C4.21864 12.3971 4.16704 12.4093 4.11544 12.4052C4.06383 12.4011 4.01429 12.3807 3.97245 12.3464C3.93061 12.3121 3.89815 12.2652 3.87876 12.2112C3.85937 12.1571 3.85383 12.098 3.86277 12.0405L4.32226 9.01919C4.3527 8.81972 4.33959 8.6149 4.28407 8.42242C4.22855 8.22995 4.13228 8.05561 4.00359 7.91447L2.05509 5.77618C2.01785 5.73564 1.99146 5.68411 1.97892 5.62748C1.96639 5.57085 1.96822 5.51139 1.9842 5.45588C2.00018 5.40036 2.02967 5.35102 2.06932 5.31348C2.10896 5.27593 2.15716 5.25169 2.20842 5.24352L4.90222 4.79964C5.07971 4.77063 5.24827 4.69339 5.39338 4.57458C5.53848 4.45576 5.65577 4.29894 5.73513 4.11764L6.93938 1.36674Z" fill="#0558FE" stroke="#0558FE" stroke-width="2" stroke-linecap="round" stroke-linejoin="round"/>
</g>
<defs>
<clipPath id="clip0_4328_766">
<rect width="12.5171" height="14.1102" fill="white" transform="translate(0.928711 0.0175781)"/>
</clipPath>
</defs>
</svg>
