<svg width="320" height="180" viewBox="0 0 320 180" fill="none" xmlns="http://www.w3.org/2000/svg">
<rect width="320" height="180" rx="8" fill="#F8F8F8"/>
<rect x="0.5" y="0.5" width="319" height="179" rx="7.5" stroke="black" stroke-opacity="0.2" stroke-dasharray="2 2"/>
<path d="M182.096 62.5162C182.096 62.5162 183.269 47.7721 168.795 46.0907C156.391 44.9086 152.614 55.6678 152.614 55.6678C152.614 55.6678 148.879 52.3152 143.811 55.0539C139.273 57.6678 140.076 62.4538 140.076 62.4538C140.076 62.4538 130 64.2819 130 73.8673C130.224 83.441 140.939 83.5371 140.939 83.5371H157.836V73.4187H152.415L161.45 64.9868L170.485 73.4187H165.064V83.5371H180.363C180.363 83.5371 190.338 83.5472 191.738 74.439C192.405 64.4792 182.096 62.5162 182.096 62.5162Z" fill="#BEC4D5"/>
<path d="M127.32 101.964V110.784C127.32 112.024 127.62 112.944 128.22 113.544C128.833 114.144 129.68 114.444 130.76 114.444C131.827 114.444 132.66 114.144 133.26 113.544C133.873 112.944 134.18 112.024 134.18 110.784V101.964H136V110.764C136 111.924 135.767 112.904 135.3 113.704C134.833 114.491 134.2 115.078 133.4 115.464C132.613 115.851 131.727 116.044 130.74 116.044C129.753 116.044 128.86 115.851 128.06 115.464C127.273 115.078 126.647 114.491 126.18 113.704C125.727 112.904 125.5 111.924 125.5 110.764V101.964H127.32ZM140.856 106.964C141.216 106.338 141.749 105.818 142.456 105.404C143.176 104.978 144.009 104.764 144.956 104.764C145.929 104.764 146.809 104.998 147.596 105.464C148.396 105.931 149.023 106.591 149.476 107.444C149.929 108.284 150.156 109.264 150.156 110.384C150.156 111.491 149.929 112.478 149.476 113.344C149.023 114.211 148.396 114.884 147.596 115.364C146.809 115.844 145.929 116.084 144.956 116.084C144.023 116.084 143.196 115.878 142.476 115.464C141.769 115.038 141.229 114.511 140.856 113.884V121.104H139.036V104.944H140.856V106.964ZM148.296 110.384C148.296 109.558 148.129 108.838 147.796 108.224C147.463 107.611 147.009 107.144 146.436 106.824C145.876 106.504 145.256 106.344 144.576 106.344C143.909 106.344 143.289 106.511 142.716 106.844C142.156 107.164 141.703 107.638 141.356 108.264C141.023 108.878 140.856 109.591 140.856 110.404C140.856 111.231 141.023 111.958 141.356 112.584C141.703 113.198 142.156 113.671 142.716 114.004C143.289 114.324 143.909 114.484 144.576 114.484C145.256 114.484 145.876 114.324 146.436 114.004C147.009 113.671 147.463 113.198 147.796 112.584C148.129 111.958 148.296 111.224 148.296 110.384ZM154.372 101.104V115.904H152.552V101.104H154.372ZM162.254 116.084C161.227 116.084 160.294 115.851 159.454 115.384C158.627 114.918 157.974 114.258 157.494 113.404C157.027 112.538 156.794 111.538 156.794 110.404C156.794 109.284 157.034 108.298 157.514 107.444C158.007 106.578 158.674 105.918 159.514 105.464C160.354 104.998 161.294 104.764 162.334 104.764C163.374 104.764 164.314 104.998 165.154 105.464C165.994 105.918 166.654 106.571 167.134 107.424C167.627 108.278 167.874 109.271 167.874 110.404C167.874 111.538 167.62 112.538 167.114 113.404C166.62 114.258 165.947 114.918 165.094 115.384C164.24 115.851 163.294 116.084 162.254 116.084ZM162.254 114.484C162.907 114.484 163.52 114.331 164.094 114.024C164.667 113.718 165.127 113.258 165.474 112.644C165.834 112.031 166.014 111.284 166.014 110.404C166.014 109.524 165.84 108.778 165.494 108.164C165.147 107.551 164.694 107.098 164.134 106.804C163.574 106.498 162.967 106.344 162.314 106.344C161.647 106.344 161.034 106.498 160.474 106.804C159.927 107.098 159.487 107.551 159.154 108.164C158.82 108.778 158.654 109.524 158.654 110.404C158.654 111.298 158.814 112.051 159.134 112.664C159.467 113.278 159.907 113.738 160.454 114.044C161 114.338 161.6 114.484 162.254 114.484ZM169.587 110.384C169.587 109.264 169.813 108.284 170.267 107.444C170.72 106.591 171.34 105.931 172.127 105.464C172.927 104.998 173.813 104.764 174.787 104.764C175.747 104.764 176.58 104.971 177.287 105.384C177.993 105.798 178.52 106.318 178.867 106.944V104.944H180.707V115.904H178.867V113.864C178.507 114.504 177.967 115.038 177.247 115.464C176.54 115.878 175.713 116.084 174.767 116.084C173.793 116.084 172.913 115.844 172.127 115.364C171.34 114.884 170.72 114.211 170.267 113.344C169.813 112.478 169.587 111.491 169.587 110.384ZM178.867 110.404C178.867 109.578 178.7 108.858 178.367 108.244C178.033 107.631 177.58 107.164 177.007 106.844C176.447 106.511 175.827 106.344 175.147 106.344C174.467 106.344 173.847 106.504 173.287 106.824C172.727 107.144 172.28 107.611 171.947 108.224C171.613 108.838 171.447 109.558 171.447 110.384C171.447 111.224 171.613 111.958 171.947 112.584C172.28 113.198 172.727 113.671 173.287 114.004C173.847 114.324 174.467 114.484 175.147 114.484C175.827 114.484 176.447 114.324 177.007 114.004C177.58 113.671 178.033 113.198 178.367 112.584C178.7 111.958 178.867 111.231 178.867 110.404ZM183.102 110.384C183.102 109.264 183.329 108.284 183.782 107.444C184.236 106.591 184.856 105.931 185.642 105.464C186.442 104.998 187.336 104.764 188.322 104.764C189.176 104.764 189.969 104.964 190.702 105.364C191.436 105.751 191.996 106.264 192.382 106.904V101.104H194.222V115.904H192.382V113.844C192.022 114.498 191.489 115.038 190.782 115.464C190.076 115.878 189.249 116.084 188.302 116.084C187.329 116.084 186.442 115.844 185.642 115.364C184.856 114.884 184.236 114.211 183.782 113.344C183.329 112.478 183.102 111.491 183.102 110.384ZM192.382 110.404C192.382 109.578 192.216 108.858 191.882 108.244C191.549 107.631 191.096 107.164 190.522 106.844C189.962 106.511 189.342 106.344 188.662 106.344C187.982 106.344 187.362 106.504 186.802 106.824C186.242 107.144 185.796 107.611 185.462 108.224C185.129 108.838 184.962 109.558 184.962 110.384C184.962 111.224 185.129 111.958 185.462 112.584C185.796 113.198 186.242 113.671 186.802 114.004C187.362 114.324 187.982 114.484 188.662 114.484C189.342 114.484 189.962 114.324 190.522 114.004C191.096 113.671 191.549 113.198 191.882 112.584C192.216 111.958 192.382 111.231 192.382 110.404Z" fill="#7B7B7B"/>
</svg>
